<svg width="865" height="302" viewBox="0 0 865 302" fill="none" xmlns="http://www.w3.org/2000/svg">
<path d="M435.804 168.908V194H432.528V168.908H435.804ZM449.523 173.948C451.227 173.948 452.715 174.32 453.987 175.064C455.283 175.808 456.243 176.744 456.867 177.872V174.272H460.179V194.432C460.179 196.232 459.795 197.828 459.027 199.22C458.259 200.636 457.155 201.74 455.715 202.532C454.299 203.324 452.643 203.72 450.747 203.72C448.155 203.72 445.995 203.108 444.267 201.884C442.539 200.66 441.519 198.992 441.207 196.88H444.447C444.807 198.08 445.551 199.04 446.679 199.76C447.807 200.504 449.163 200.876 450.747 200.876C452.547 200.876 454.011 200.312 455.139 199.184C456.291 198.056 456.867 196.472 456.867 194.432V190.292C456.219 191.444 455.259 192.404 453.987 193.172C452.715 193.94 451.227 194.324 449.523 194.324C447.771 194.324 446.175 193.892 444.735 193.028C443.319 192.164 442.203 190.952 441.387 189.392C440.571 187.832 440.163 186.056 440.163 184.064C440.163 182.048 440.571 180.284 441.387 178.772C442.203 177.236 443.319 176.048 444.735 175.208C446.175 174.368 447.771 173.948 449.523 173.948ZM456.867 184.1C456.867 182.612 456.567 181.316 455.967 180.212C455.367 179.108 454.551 178.268 453.519 177.692C452.511 177.092 451.395 176.792 450.171 176.792C448.947 176.792 447.831 177.08 446.823 177.656C445.815 178.232 445.011 179.072 444.411 180.176C443.811 181.28 443.511 182.576 443.511 184.064C443.511 185.576 443.811 186.896 444.411 188.024C445.011 189.128 445.815 189.98 446.823 190.58C447.831 191.156 448.947 191.444 450.171 191.444C451.395 191.444 452.511 191.156 453.519 190.58C454.551 189.98 455.367 189.128 455.967 188.024C456.567 186.896 456.867 185.588 456.867 184.1ZM468.991 167.36V194H465.715V167.36H468.991ZM492.575 183.38C492.575 184.004 492.539 184.664 492.467 185.36H476.699C476.819 187.304 477.479 188.828 478.679 189.932C479.903 191.012 481.379 191.552 483.107 191.552C484.523 191.552 485.699 191.228 486.635 190.58C487.595 189.908 488.267 189.02 488.651 187.916H492.179C491.651 189.812 490.595 191.36 489.011 192.56C487.427 193.736 485.459 194.324 483.107 194.324C481.235 194.324 479.555 193.904 478.067 193.064C476.603 192.224 475.451 191.036 474.611 189.5C473.771 187.94 473.351 186.14 473.351 184.1C473.351 182.06 473.759 180.272 474.575 178.736C475.391 177.2 476.531 176.024 477.995 175.208C479.483 174.368 481.187 173.948 483.107 173.948C484.979 173.948 486.635 174.356 488.075 175.172C489.515 175.988 490.619 177.116 491.387 178.556C492.179 179.972 492.575 181.58 492.575 183.38ZM489.191 182.696C489.191 181.448 488.915 180.38 488.363 179.492C487.811 178.58 487.055 177.896 486.095 177.44C485.159 176.96 484.115 176.72 482.963 176.72C481.307 176.72 479.891 177.248 478.715 178.304C477.563 179.36 476.903 180.824 476.735 182.696H489.191ZM503.883 194.324C502.371 194.324 501.015 194.072 499.815 193.568C498.615 193.04 497.667 192.32 496.971 191.408C496.275 190.472 495.891 189.404 495.819 188.204H499.203C499.299 189.188 499.755 189.992 500.571 190.616C501.411 191.24 502.503 191.552 503.847 191.552C505.095 191.552 506.079 191.276 506.799 190.724C507.519 190.172 507.879 189.476 507.879 188.636C507.879 187.772 507.495 187.136 506.727 186.728C505.959 186.296 504.771 185.876 503.163 185.468C501.699 185.084 500.499 184.7 499.563 184.316C498.651 183.908 497.859 183.32 497.187 182.552C496.539 181.76 496.215 180.728 496.215 179.456C496.215 178.448 496.515 177.524 497.115 176.684C497.715 175.844 498.567 175.184 499.671 174.704C500.775 174.2 502.035 173.948 503.451 173.948C505.635 173.948 507.399 174.5 508.743 175.604C510.087 176.708 510.807 178.22 510.903 180.14H507.627C507.555 179.108 507.135 178.28 506.367 177.656C505.623 177.032 504.615 176.72 503.343 176.72C502.167 176.72 501.231 176.972 500.535 177.476C499.839 177.98 499.491 178.64 499.491 179.456C499.491 180.104 499.695 180.644 500.103 181.076C500.535 181.484 501.063 181.82 501.687 182.084C502.335 182.324 503.223 182.6 504.351 182.912C505.767 183.296 506.919 183.68 507.807 184.064C508.695 184.424 509.451 184.976 510.075 185.72C510.723 186.464 511.059 187.436 511.083 188.636C511.083 189.716 510.783 190.688 510.183 191.552C509.583 192.416 508.731 193.1 507.627 193.604C506.547 194.084 505.299 194.324 503.883 194.324ZM517.4 171.068C516.776 171.068 516.248 170.852 515.816 170.42C515.384 169.988 515.168 169.46 515.168 168.836C515.168 168.212 515.384 167.684 515.816 167.252C516.248 166.82 516.776 166.604 517.4 166.604C518 166.604 518.504 166.82 518.912 167.252C519.344 167.684 519.56 168.212 519.56 168.836C519.56 169.46 519.344 169.988 518.912 170.42C518.504 170.852 518 171.068 517.4 171.068ZM518.984 174.272V194H515.708V174.272H518.984ZM523.343 184.064C523.343 182.048 523.751 180.284 524.567 178.772C525.383 177.236 526.499 176.048 527.915 175.208C529.355 174.368 530.951 173.948 532.703 173.948C534.431 173.948 535.931 174.32 537.203 175.064C538.475 175.808 539.423 176.744 540.047 177.872V174.272H543.359V194H540.047V190.328C539.399 191.48 538.427 192.44 537.131 193.208C535.859 193.952 534.371 194.324 532.667 194.324C530.915 194.324 529.331 193.892 527.915 193.028C526.499 192.164 525.383 190.952 524.567 189.392C523.751 187.832 523.343 186.056 523.343 184.064ZM540.047 184.1C540.047 182.612 539.747 181.316 539.147 180.212C538.547 179.108 537.731 178.268 536.699 177.692C535.691 177.092 534.575 176.792 533.351 176.792C532.127 176.792 531.011 177.08 530.003 177.656C528.995 178.232 528.191 179.072 527.591 180.176C526.991 181.28 526.691 182.576 526.691 184.064C526.691 185.576 526.991 186.896 527.591 188.024C528.191 189.128 528.995 189.98 530.003 190.58C531.011 191.156 532.127 191.444 533.351 191.444C534.575 191.444 535.691 191.156 536.699 190.58C537.731 189.98 538.547 189.128 539.147 188.024C539.747 186.896 540.047 185.588 540.047 184.1ZM566.305 168.908C569.041 168.908 571.405 169.424 573.397 170.456C575.413 171.464 576.949 172.916 578.005 174.812C579.085 176.708 579.625 178.94 579.625 181.508C579.625 184.076 579.085 186.308 578.005 188.204C576.949 190.076 575.413 191.516 573.397 192.524C571.405 193.508 569.041 194 566.305 194H558.493V168.908H566.305ZM566.305 191.3C569.545 191.3 572.017 190.448 573.721 188.744C575.425 187.016 576.277 184.604 576.277 181.508C576.277 178.388 575.413 175.952 573.685 174.2C571.981 172.448 569.521 171.572 566.305 171.572H561.769V191.3H566.305ZM601.946 183.38C601.946 184.004 601.91 184.664 601.838 185.36H586.07C586.19 187.304 586.85 188.828 588.05 189.932C589.274 191.012 590.75 191.552 592.478 191.552C593.894 191.552 595.07 191.228 596.006 190.58C596.966 189.908 597.638 189.02 598.022 187.916H601.55C601.022 189.812 599.966 191.36 598.382 192.56C596.798 193.736 594.83 194.324 592.478 194.324C590.606 194.324 588.926 193.904 587.438 193.064C585.974 192.224 584.822 191.036 583.982 189.5C583.142 187.94 582.722 186.14 582.722 184.1C582.722 182.06 583.13 180.272 583.946 178.736C584.762 177.2 585.902 176.024 587.366 175.208C588.854 174.368 590.558 173.948 592.478 173.948C594.35 173.948 596.006 174.356 597.446 175.172C598.886 175.988 599.99 177.116 600.758 178.556C601.55 179.972 601.946 181.58 601.946 183.38ZM598.562 182.696C598.562 181.448 598.286 180.38 597.734 179.492C597.182 178.58 596.426 177.896 595.466 177.44C594.53 176.96 593.486 176.72 592.334 176.72C590.678 176.72 589.262 177.248 588.086 178.304C586.934 179.36 586.274 180.824 586.106 182.696H598.562ZM623.68 168.908C626.416 168.908 628.78 169.424 630.772 170.456C632.788 171.464 634.324 172.916 635.38 174.812C636.46 176.708 637 178.94 637 181.508C637 184.076 636.46 186.308 635.38 188.204C634.324 190.076 632.788 191.516 630.772 192.524C628.78 193.508 626.416 194 623.68 194H615.868V168.908H623.68ZM623.68 191.3C626.92 191.3 629.392 190.448 631.096 188.744C632.8 187.016 633.652 184.604 633.652 181.508C633.652 178.388 632.788 175.952 631.06 174.2C629.356 172.448 626.896 171.572 623.68 171.572H619.144V191.3H623.68ZM643.013 171.068C642.389 171.068 641.861 170.852 641.429 170.42C640.997 169.988 640.781 169.46 640.781 168.836C640.781 168.212 640.997 167.684 641.429 167.252C641.861 166.82 642.389 166.604 643.013 166.604C643.613 166.604 644.117 166.82 644.525 167.252C644.957 167.684 645.173 168.212 645.173 168.836C645.173 169.46 644.957 169.988 644.525 170.42C644.117 170.852 643.613 171.068 643.013 171.068ZM644.597 174.272V194H641.321V174.272H644.597ZM658.784 194.324C656.936 194.324 655.256 193.904 653.744 193.064C652.256 192.224 651.08 191.036 650.216 189.5C649.376 187.94 648.956 186.14 648.956 184.1C648.956 182.084 649.388 180.308 650.252 178.772C651.14 177.212 652.34 176.024 653.852 175.208C655.364 174.368 657.056 173.948 658.928 173.948C660.8 173.948 662.492 174.368 664.004 175.208C665.516 176.024 666.704 177.2 667.568 178.736C668.456 180.272 668.9 182.06 668.9 184.1C668.9 186.14 668.444 187.94 667.532 189.5C666.644 191.036 665.432 192.224 663.896 193.064C662.36 193.904 660.656 194.324 658.784 194.324ZM658.784 191.444C659.96 191.444 661.064 191.168 662.096 190.616C663.128 190.064 663.956 189.236 664.58 188.132C665.228 187.028 665.552 185.684 665.552 184.1C665.552 182.516 665.24 181.172 664.616 180.068C663.992 178.964 663.176 178.148 662.168 177.62C661.16 177.068 660.068 176.792 658.892 176.792C657.692 176.792 656.588 177.068 655.58 177.62C654.596 178.148 653.804 178.964 653.204 180.068C652.604 181.172 652.304 182.516 652.304 184.1C652.304 185.708 652.592 187.064 653.168 188.168C653.768 189.272 654.56 190.1 655.544 190.652C656.528 191.18 657.608 191.444 658.784 191.444ZM680.192 194.324C678.68 194.324 677.324 194.072 676.124 193.568C674.924 193.04 673.976 192.32 673.28 191.408C672.584 190.472 672.2 189.404 672.128 188.204H675.512C675.608 189.188 676.064 189.992 676.88 190.616C677.72 191.24 678.812 191.552 680.156 191.552C681.404 191.552 682.388 191.276 683.108 190.724C683.828 190.172 684.188 189.476 684.188 188.636C684.188 187.772 683.804 187.136 683.036 186.728C682.268 186.296 681.08 185.876 679.472 185.468C678.008 185.084 676.808 184.7 675.872 184.316C674.96 183.908 674.168 183.32 673.496 182.552C672.848 181.76 672.524 180.728 672.524 179.456C672.524 178.448 672.824 177.524 673.424 176.684C674.024 175.844 674.876 175.184 675.98 174.704C677.084 174.2 678.344 173.948 679.76 173.948C681.944 173.948 683.708 174.5 685.052 175.604C686.396 176.708 687.116 178.22 687.212 180.14H683.936C683.864 179.108 683.444 178.28 682.676 177.656C681.932 177.032 680.924 176.72 679.652 176.72C678.476 176.72 677.54 176.972 676.844 177.476C676.148 177.98 675.8 178.64 675.8 179.456C675.8 180.104 676.004 180.644 676.412 181.076C676.844 181.484 677.372 181.82 677.996 182.084C678.644 182.324 679.532 182.6 680.66 182.912C682.076 183.296 683.228 183.68 684.116 184.064C685.004 184.424 685.76 184.976 686.384 185.72C687.032 186.464 687.368 187.436 687.392 188.636C687.392 189.716 687.092 190.688 686.492 191.552C685.892 192.416 685.04 193.1 683.936 193.604C682.856 194.084 681.608 194.324 680.192 194.324Z" fill="black"/>
<path d="M36.0328 113.818L61.1986 97.2315V275.68H80L121.253 301.418H36.0328V113.818Z" fill="#F59E0B"/>
<path d="M10.5 136L0 122.969L82.9328 60.6267V14.2988H120.11V36.0329L167.009 0L247.654 57.195L333 113L323 127.5L238 72L167.009 23L10.5 136Z" fill="#F59E0B"/>
<path d="M120.838 118.172H180.949C174.27 120.745 127.004 104.276 113.222 184.05C105.04 231.411 137.882 266.912 177.956 261.766C215.373 256.96 230.359 232.086 233.442 220.592C228.099 233.767 196.451 251.987 177.956 251.987C243.717 212.46 223.681 164.492 213.919 137.215C204.158 109.937 209.205 76.9978 227.791 60.0136C246.162 43.2249 259.13 47.1467 276.084 42C265.295 56.4109 233.951 100.237 265.295 156.258C310.506 237.061 246.358 280.802 220.084 292.646C193.81 304.49 127.093 312.204 93.1851 254.56C57.4603 193.829 97.7192 115.084 120.838 118.172Z" fill="#DC2626"/>
<path d="M155.385 60H179.744V109.859H205.077L208 128.434H179.744V248.193C172.728 250.539 160.581 247.215 155.385 245.26V128.434H94V109.859H155.385V60Z" fill="#222222"/>
<path d="M282.68 265.2C282.68 261.904 283.416 258.96 284.888 256.368C286.392 253.744 288.424 251.712 290.984 250.272C293.576 248.8 296.472 248.064 299.672 248.064C303.416 248.064 306.696 249.024 309.512 250.944C312.328 252.864 314.296 255.52 315.416 258.912H307.688C306.92 257.312 305.832 256.112 304.424 255.312C303.048 254.512 301.448 254.112 299.624 254.112C297.672 254.112 295.928 254.576 294.392 255.504C292.888 256.4 291.704 257.68 290.84 259.344C290.008 261.008 289.592 262.96 289.592 265.2C289.592 267.408 290.008 269.36 290.84 271.056C291.704 272.72 292.888 274.016 294.392 274.944C295.928 275.84 297.672 276.288 299.624 276.288C301.448 276.288 303.048 275.888 304.424 275.088C305.832 274.256 306.92 273.04 307.688 271.44H315.416C314.296 274.864 312.328 277.536 309.512 279.456C306.728 281.344 303.448 282.288 299.672 282.288C296.472 282.288 293.576 281.568 290.984 280.128C288.424 278.656 286.392 276.624 284.888 274.032C283.416 271.44 282.68 268.496 282.68 265.2ZM341.7 275.616H328.356L326.148 282H319.092L331.14 248.448H338.964L351.012 282H343.908L341.7 275.616ZM339.876 270.24L335.028 256.224L330.18 270.24H339.876ZM367.083 282.336C364.747 282.336 362.635 281.936 360.747 281.136C358.891 280.336 357.419 279.184 356.331 277.68C355.243 276.176 354.683 274.4 354.651 272.352H361.851C361.947 273.728 362.427 274.816 363.291 275.616C364.187 276.416 365.403 276.816 366.939 276.816C368.507 276.816 369.739 276.448 370.635 275.712C371.531 274.944 371.979 273.952 371.979 272.736C371.979 271.744 371.675 270.928 371.067 270.288C370.459 269.648 369.691 269.152 368.763 268.8C367.867 268.416 366.619 268 365.019 267.552C362.843 266.912 361.067 266.288 359.691 265.68C358.347 265.04 357.179 264.096 356.187 262.848C355.227 261.568 354.747 259.872 354.747 257.76C354.747 255.776 355.243 254.048 356.235 252.576C357.227 251.104 358.619 249.984 360.411 249.216C362.203 248.416 364.251 248.016 366.555 248.016C370.011 248.016 372.811 248.864 374.955 250.56C377.131 252.224 378.331 254.56 378.555 257.568H371.163C371.099 256.416 370.603 255.472 369.675 254.736C368.779 253.968 367.579 253.584 366.075 253.584C364.763 253.584 363.707 253.92 362.907 254.592C362.139 255.264 361.755 256.24 361.755 257.52C361.755 258.416 362.043 259.168 362.619 259.776C363.227 260.352 363.963 260.832 364.827 261.216C365.723 261.568 366.971 261.984 368.571 262.464C370.747 263.104 372.523 263.744 373.899 264.384C375.275 265.024 376.459 265.984 377.451 267.264C378.443 268.544 378.939 270.224 378.939 272.304C378.939 274.096 378.475 275.76 377.547 277.296C376.619 278.832 375.259 280.064 373.467 280.992C371.675 281.888 369.547 282.336 367.083 282.336ZM405.309 275.616H391.965L389.757 282H382.701L394.749 248.448H402.573L414.621 282H407.517L405.309 275.616ZM403.485 270.24L398.637 256.224L393.789 270.24H403.485ZM442.274 248.496C445.794 248.496 448.882 249.184 451.538 250.56C454.226 251.936 456.29 253.904 457.73 256.464C459.202 258.992 459.938 261.936 459.938 265.296C459.938 268.656 459.202 271.6 457.73 274.128C456.29 276.624 454.226 278.56 451.538 279.936C448.882 281.312 445.794 282 442.274 282H430.562V248.496H442.274ZM442.034 276.288C445.554 276.288 448.274 275.328 450.194 273.408C452.114 271.488 453.074 268.784 453.074 265.296C453.074 261.808 452.114 259.088 450.194 257.136C448.274 255.152 445.554 254.16 442.034 254.16H437.282V276.288H442.034ZM471.688 253.92V262.32H482.968V267.648H471.688V276.528H484.408V282H464.968V248.448H484.408V253.92H471.688ZM519.233 282L511.841 268.944H508.673V282H501.953V248.496H514.529C517.121 248.496 519.329 248.96 521.153 249.888C522.977 250.784 524.337 252.016 525.233 253.584C526.161 255.12 526.625 256.848 526.625 258.768C526.625 260.976 525.985 262.976 524.705 264.768C523.425 266.528 521.521 267.744 518.993 268.416L527.009 282H519.233ZM508.673 263.904H514.289C516.113 263.904 517.473 263.472 518.369 262.608C519.265 261.712 519.713 260.48 519.713 258.912C519.713 257.376 519.265 256.192 518.369 255.36C517.473 254.496 516.113 254.064 514.289 254.064H508.673V263.904ZM539.423 253.92V262.32H550.703V267.648H539.423V276.528H552.143V282H532.703V248.448H552.143V253.92H539.423ZM569.818 282.336C567.482 282.336 565.37 281.936 563.482 281.136C561.626 280.336 560.154 279.184 559.066 277.68C557.978 276.176 557.418 274.4 557.386 272.352H564.586C564.682 273.728 565.162 274.816 566.026 275.616C566.922 276.416 568.138 276.816 569.674 276.816C571.242 276.816 572.474 276.448 573.37 275.712C574.266 274.944 574.714 273.952 574.714 272.736C574.714 271.744 574.41 270.928 573.802 270.288C573.194 269.648 572.426 269.152 571.498 268.8C570.602 268.416 569.354 268 567.754 267.552C565.578 266.912 563.802 266.288 562.426 265.68C561.082 265.04 559.914 264.096 558.922 262.848C557.962 261.568 557.482 259.872 557.482 257.76C557.482 255.776 557.978 254.048 558.97 252.576C559.962 251.104 561.354 249.984 563.146 249.216C564.938 248.416 566.986 248.016 569.29 248.016C572.746 248.016 575.546 248.864 577.69 250.56C579.866 252.224 581.066 254.56 581.29 257.568H573.898C573.834 256.416 573.338 255.472 572.41 254.736C571.514 253.968 570.314 253.584 568.81 253.584C567.498 253.584 566.442 253.92 565.642 254.592C564.874 255.264 564.49 256.24 564.49 257.52C564.49 258.416 564.778 259.168 565.354 259.776C565.962 260.352 566.698 260.832 567.562 261.216C568.458 261.568 569.706 261.984 571.306 262.464C573.482 263.104 575.258 263.744 576.634 264.384C578.01 265.024 579.194 265.984 580.186 267.264C581.178 268.544 581.674 270.224 581.674 272.304C581.674 274.096 581.21 275.76 580.281 277.296C579.354 278.832 577.994 280.064 576.202 280.992C574.41 281.888 572.282 282.336 569.818 282.336ZM610.3 248.496V253.92H601.372V282H594.652V253.92H585.724V248.496H610.3ZM635.747 275.616H622.403L620.195 282H613.139L625.187 248.448H633.011L645.059 282H637.955L635.747 275.616ZM633.923 270.24L629.075 256.224L624.227 270.24H633.923ZM656.186 248.496V269.232C656.186 271.504 656.778 273.248 657.962 274.464C659.146 275.648 660.81 276.24 662.954 276.24C665.13 276.24 666.81 275.648 667.994 274.464C669.178 273.248 669.77 271.504 669.77 269.232V248.496H676.538V269.184C676.538 272.032 675.914 274.448 674.666 276.432C673.45 278.384 671.802 279.856 669.722 280.848C667.674 281.84 665.386 282.336 662.858 282.336C660.362 282.336 658.09 281.84 656.042 280.848C654.026 279.856 652.426 278.384 651.242 276.432C650.058 274.448 649.466 272.032 649.466 269.184V248.496H656.186ZM700.311 282L692.919 268.944H689.751V282H683.031V248.496H695.607C698.199 248.496 700.407 248.96 702.231 249.888C704.055 250.784 705.415 252.016 706.311 253.584C707.239 255.12 707.703 256.848 707.703 258.768C707.703 260.976 707.063 262.976 705.783 264.768C704.503 266.528 702.599 267.744 700.071 268.416L708.087 282H700.311ZM689.751 263.904H695.367C697.191 263.904 698.551 263.472 699.447 262.608C700.343 261.712 700.791 260.48 700.791 258.912C700.791 257.376 700.343 256.192 699.447 255.36C698.551 254.496 697.191 254.064 695.367 254.064H689.751V263.904ZM734.325 275.616H720.981L718.773 282H711.717L723.765 248.448H731.589L743.637 282H736.533L734.325 275.616ZM732.501 270.24L727.653 256.224L722.805 270.24H732.501ZM746.508 265.2C746.508 261.904 747.244 258.96 748.716 256.368C750.22 253.744 752.252 251.712 754.812 250.272C757.404 248.8 760.3 248.064 763.5 248.064C767.244 248.064 770.524 249.024 773.34 250.944C776.156 252.864 778.124 255.52 779.244 258.912H771.516C770.748 257.312 769.66 256.112 768.252 255.312C766.876 254.512 765.276 254.112 763.452 254.112C761.5 254.112 759.756 254.576 758.22 255.504C756.716 256.4 755.532 257.68 754.668 259.344C753.836 261.008 753.42 262.96 753.42 265.2C753.42 267.408 753.836 269.36 754.668 271.056C755.532 272.72 756.716 274.016 758.22 274.944C759.756 275.84 761.5 276.288 763.452 276.288C765.276 276.288 766.876 275.888 768.252 275.088C769.66 274.256 770.748 273.04 771.516 271.44H779.244C778.124 274.864 776.156 277.536 773.34 279.456C770.556 281.344 767.276 282.288 763.5 282.288C760.3 282.288 757.404 281.568 754.812 280.128C752.252 278.656 750.22 276.624 748.716 274.032C747.244 271.44 746.508 268.496 746.508 265.2ZM791.704 248.496V282H784.984V248.496H791.704ZM813.895 282.336C810.759 282.336 807.879 281.6 805.255 280.128C802.631 278.656 800.551 276.624 799.015 274.032C797.479 271.408 796.711 268.448 796.711 265.152C796.711 261.888 797.479 258.96 799.015 256.368C800.551 253.744 802.631 251.696 805.255 250.224C807.879 248.752 810.759 248.016 813.895 248.016C817.063 248.016 819.943 248.752 822.535 250.224C825.159 251.696 827.223 253.744 828.727 256.368C830.263 258.96 831.031 261.888 831.031 265.152C831.031 268.448 830.263 271.408 828.727 274.032C827.223 276.624 825.159 278.656 822.535 280.128C819.911 281.6 817.031 282.336 813.895 282.336ZM813.895 276.336C815.911 276.336 817.687 275.888 819.223 274.992C820.759 274.064 821.959 272.752 822.823 271.056C823.687 269.36 824.119 267.392 824.119 265.152C824.119 262.912 823.687 260.96 822.823 259.296C821.959 257.6 820.759 256.304 819.223 255.408C817.687 254.512 815.911 254.064 813.895 254.064C811.879 254.064 810.087 254.512 808.519 255.408C806.983 256.304 805.783 257.6 804.919 259.296C804.055 260.96 803.623 262.912 803.623 265.152C803.623 267.392 804.055 269.36 804.919 271.056C805.783 272.752 806.983 274.064 808.519 274.992C810.087 275.888 811.879 276.336 813.895 276.336ZM819.127 241.536L808.087 246.576V241.776L819.127 236.064V241.536ZM864.687 282H857.967L842.751 259.008V282H836.031V248.448H842.751L857.967 271.488V248.448H864.687V282Z" fill="black"/>
</svg>
